<svg xmlns="http://www.w3.org/2000/svg" width="129" height="29" fill="none"><g fill="#202124" clip-path="url(#a)"><path d="M0 12.223C0 6.54 4.768 1.91 10.463 1.91a9.818 9.818 0 0 1 7.074 2.841L15.539 6.74a7.176 7.176 0 0 0-5.073-2.009c-4.148 0-7.39 3.34-7.39 7.497s3.237 7.495 7.39 7.495c2.69 0 4.223-1.081 5.205-2.063.805-.806 1.331-1.966 1.533-3.538h-6.74v-2.83h9.478c.107.584.158 1.177.15 1.77 0 2.112-.576 4.728-2.438 6.59-1.815 1.879-4.13 2.875-7.19 2.875C4.767 22.526 0 17.908 0 12.222M27.75 19.919c-2.009 0-3.745-1.66-3.745-4.025 0-2.366 1.733-4.024 3.745-4.024 2.01 0 3.741 1.635 3.741 4.027 0 2.393-1.733 4.023-3.741 4.023v-.001Zm0-10.663c-3.668 0-6.662 2.795-6.662 6.637 0 3.842 2.991 6.632 6.662 6.632 3.67 0 6.662-2.818 6.662-6.636 0-3.82-2.995-6.635-6.662-6.635v.002ZM42.28 19.919c-2.01 0-3.746-1.66-3.746-4.025 0-2.366 1.734-4.024 3.745-4.024s3.746 1.635 3.746 4.027c0 2.393-1.735 4.027-3.746 4.027v-.005Zm0-10.66c-3.668 0-6.663 2.795-6.663 6.637 0 3.843 2.992 6.633 6.662 6.633s6.662-2.818 6.662-6.637c0-3.819-2.992-6.638-6.662-6.638v.006ZM67.812 2.614h-2.917v19.52h2.917V2.613Z"/><path d="M67.812 2.614h-2.917v19.52h2.917V2.613ZM75.58 11.82c1.157 0 2.137.578 2.463 1.41l-5.932 2.463c-.077-2.566 1.986-3.872 3.468-3.872h.001Zm.225 8.1c-1.484 0-2.539-.68-3.217-2.008l8.876-3.674-.299-.749c-.553-1.484-2.236-4.224-5.68-4.224-3.446 0-6.26 2.692-6.26 6.636 0 3.723 2.816 6.637 6.587 6.637a6.6 6.6 0 0 0 5.53-2.947l-2.262-1.51c-.76 1.105-1.79 1.84-3.274 1.84ZM56.779 19.92c-2.009 0-3.696-1.685-3.696-3.998s1.685-4.05 3.696-4.05 3.535 1.71 3.535 4.05-1.553 3.998-3.538 3.998h.003Zm3.336-10.263v1.08h-.1c-.655-.786-1.911-1.485-3.494-1.485-3.318 0-6.36 2.918-6.36 6.666s3.041 6.608 6.36 6.608c1.584 0 2.84-.698 3.493-1.509h.1v.956c0 2.54-1.356 3.898-3.535 3.898-1.785 0-2.89-1.283-3.338-2.358l-2.54 1.058a6.322 6.322 0 0 0 5.892 3.93c3.42 0 6.31-2.01 6.31-6.918V9.657h-2.788ZM99.973 2.585h-9.844v19.578h9.844V2.585ZM118.23 22.473c5.577 0 10.099-4.522 10.099-10.1 0-5.577-4.522-10.099-10.099-10.099-5.578 0-10.1 4.522-10.1 10.1 0 5.577 4.522 10.099 10.1 10.099ZM103.2 24.247h-1.897L106.703.5h1.898L103.2 24.247Z"/></g><defs><clipPath id="a"><path fill="#fff" d="M0 .5h128.329v28H0z"/></clipPath></defs></svg>